# xmcd
#
# Track frame offsets:
#	150
#	12295
#	32329
#	45675
#	64352
#	86389
#	99315
#	120190
#	155147
#	177691
#	198094
#	214839
#
# Disc length: 3097 seconds
#
# Revision: 4
# Processed by: cddbd v1.5.2PL0 Copyright (c) Steve Scherf et al.
# Submitted via: audiograbber 1.80
#
DISCID=980c170c
DTITLE=Gary Moore - Still Got the Blues
DYEAR=1900
DGENRE=
TTITLE0=Moving On
TTITLE1=Oh Pretty Woman
TTITLE2=Walking By Myself
TTITLE3=Still Got the Blues
TTITLE4=Texas Strut
TTITLE5=Too Tired
TTITLE6=King Of the Blues
TTITLE7=As the Years Go Passing By
TTITLE8=Midnight Blues
TTITLE9=That Kind Of Woman
TTITLE10=All Your Love
TTITLE11=Stop Messin' Around
EXTD=
EXTT0=
EXTT1=
EXTT2=
EXTT3=
EXTT4=
EXTT5=
EXTT6=
EXTT7=
EXTT8=
EXTT9=
EXTT10=
EXTT11=
PLAYORDER=
